<svg width="22" height="17" viewBox="0 0 22 17" fill="none" xmlns="http://www.w3.org/2000/svg">
<path d="M21.1418 2.3158C20.3687 2.64628 19.5488 2.86332 18.7093 2.95974C19.5942 2.44834 20.2564 1.64349 20.5727 0.695177C19.7423 1.17275 18.8319 1.50745 17.883 1.68849C17.2456 1.02946 16.4008 0.592384 15.4798 0.445219C14.5588 0.298053 13.6134 0.449041 12.7904 0.874711C11.9674 1.30038 11.313 1.97688 10.9289 2.79904C10.5448 3.6212 10.4526 4.54296 10.6665 5.42101C8.98248 5.33945 7.33504 4.91655 5.83114 4.17977C4.32723 3.443 3.00048 2.40882 1.93702 1.14437C1.56059 1.76918 1.36277 2.47945 1.36383 3.20244C1.36383 4.62147 2.1112 5.8751 3.24745 6.60908C2.57503 6.58862 1.91741 6.41314 1.3294 6.09725V6.14814C1.3296 7.09321 1.66802 8.00913 2.28726 8.74061C2.9065 9.47208 3.76847 9.9741 4.72701 10.1615C4.10279 10.325 3.44828 10.3491 2.813 10.232C3.08326 11.0455 3.61001 11.7569 4.31949 12.2667C5.02897 12.7765 5.88566 13.0591 6.76962 13.0749C5.89108 13.7417 4.88517 14.2346 3.80938 14.5254C2.73359 14.8163 1.60903 14.8994 0.5 14.7699C2.43597 15.9731 4.68963 16.6118 6.9914 16.6098C14.7821 16.6098 19.0425 10.3729 19.0425 4.96399C19.0425 4.78784 19.0375 4.60972 19.0294 4.43553C19.8586 3.85634 20.5743 3.13885 21.1429 2.31678L21.1418 2.3158Z" fill="white"/>
</svg>
