<svg width="15" height="15" viewBox="0 0 15 15" fill="none" xmlns="http://www.w3.org/2000/svg">
<path d="M11.0055 0.214355H4.28019C3.24007 0.215468 2.24287 0.629148 1.50739 1.36463C0.77191 2.10011 0.358229 3.09731 0.357117 4.13743V10.8627C0.358229 11.9028 0.77191 12.9 1.50739 13.6355C2.24287 14.371 3.24007 14.7847 4.28019 14.7858H11.0055C12.0456 14.7847 13.0428 14.371 13.7783 13.6355C14.5138 12.9 14.9274 11.9028 14.9285 10.8627V4.13743C14.9274 3.09731 14.5138 2.10011 13.7783 1.36463C13.0428 0.629148 12.0456 0.215468 11.0055 0.214355ZM7.64283 10.8627C6.97776 10.8627 6.32763 10.6655 5.77465 10.296C5.22167 9.92651 4.79067 9.40134 4.53616 8.78689C4.28165 8.17245 4.21506 7.49634 4.34481 6.84405C4.47455 6.19176 4.79481 5.5926 5.26509 5.12233C5.73536 4.65205 6.33453 4.33179 6.98681 4.20204C7.6391 4.0723 8.31521 4.13889 8.92966 4.3934C9.5441 4.64791 10.0693 5.07891 10.4388 5.63189C10.8083 6.18487 11.0055 6.835 11.0055 7.50007C11.0045 8.39161 10.65 9.24637 10.0196 9.87679C9.38913 10.5072 8.53437 10.8618 7.64283 10.8627ZM11.8461 4.13743C11.6799 4.13743 11.5173 4.08813 11.3791 3.99576C11.2408 3.90338 11.1331 3.77209 11.0695 3.61848C11.0058 3.46487 10.9892 3.29584 11.0216 3.13277C11.0541 2.9697 11.1341 2.81991 11.2517 2.70234C11.3693 2.58477 11.5191 2.5047 11.6821 2.47227C11.8452 2.43983 12.0142 2.45648 12.1678 2.5201C12.3214 2.58373 12.4527 2.69148 12.5451 2.82973C12.6375 2.96797 12.6868 3.13051 12.6868 3.29677C12.6868 3.51973 12.5982 3.73355 12.4406 3.89121C12.2829 4.04886 12.0691 4.13743 11.8461 4.13743ZM9.88459 7.50007C9.88459 7.94345 9.75311 8.37687 9.50678 8.74552C9.26046 9.11418 8.91034 9.40151 8.50071 9.57118C8.09109 9.74086 7.64034 9.78525 7.20549 9.69875C6.77063 9.61225 6.37118 9.39875 6.05767 9.08523C5.74415 8.77172 5.53065 8.37227 5.44415 7.93741C5.35765 7.50256 5.40204 7.05181 5.57172 6.64219C5.74139 6.23256 6.02872 5.88244 6.39738 5.63612C6.76603 5.38979 7.19945 5.25831 7.64283 5.25831C8.23738 5.25831 8.80758 5.4945 9.22799 5.91491C9.6484 6.33532 9.88459 6.90552 9.88459 7.50007Z" fill="white"/>
</svg>
