<svg width="19" height="15" viewBox="0 0 19 15" fill="none" xmlns="http://www.w3.org/2000/svg">
<path d="M17.9728 2.90688C17.8692 2.50347 17.6662 2.13565 17.3843 1.84024C17.1023 1.54483 16.7512 1.3322 16.3662 1.22361C14.9481 0.821533 9.24996 0.821533 9.24996 0.821533C9.24996 0.821533 3.5518 0.821533 2.13377 1.22361C1.74871 1.3322 1.39763 1.54483 1.11566 1.84024C0.833699 2.13565 0.630737 2.50347 0.527092 2.90688C0.262313 4.42201 0.133823 5.95983 0.143312 7.5001C0.133823 9.04039 0.262313 10.5782 0.527092 12.0933C0.630737 12.4967 0.833699 12.8646 1.11566 13.16C1.39763 13.4554 1.74871 13.668 2.13377 13.7766C3.5518 14.1787 9.24996 14.1787 9.24996 14.1787C9.24996 14.1787 14.9481 14.1787 16.3662 13.7766C16.7512 13.668 17.1023 13.4554 17.3843 13.16C17.6662 12.8646 17.8692 12.4967 17.9728 12.0933C18.2376 10.5782 18.3661 9.04039 18.3566 7.5001C18.3661 5.95983 18.2376 4.42201 17.9728 2.90688ZM7.42863 10.3624V4.63786L12.1576 7.5001L7.42863 10.3624Z" fill="white"/>
</svg>
